<?xml version="1.0" standalone="no"?>
<!DOCTYPE svg PUBLIC "-//W3C//DTD SVG 20010904//EN"
 "http://www.w3.org/TR/2001/REC-SVG-20010904/DTD/svg10.dtd">
<svg version="1.0" xmlns="http://www.w3.org/2000/svg"
 width="612.000000pt" height="612.000000pt" viewBox="0 0 612.000000 612.000000"
 preserveAspectRatio="xMidYMid meet">

<g transform="translate(0.000000,612.000000) scale(0.100000,-0.100000)"
fill="#000000" stroke="none">
<path d="M2505 1902 c-60 -20 -89 -65 -82 -127 5 -47 29 -78 75 -96 13 -5 269
-9 570 -9 524 0 548 1 576 19 83 55 72 169 -20 207 -27 11 -134 14 -566 13
-293 -1 -542 -4 -553 -7z"/>
<path d="M2522 1546 c-33 -31 -37 -40 -37 -84 0 -60 28 -96 84 -112 39 -11
917 -14 969 -4 86 17 128 110 81 179 -13 19 -37 39 -53 45 -18 6 -213 10 -518
10 l-488 0 -38 -34z"/>
<path d="M2591 1225 c-35 -30 -55 -82 -45 -119 3 -14 22 -39 40 -56 l35 -30
439 0 440 0 37 34 c31 28 38 41 38 74 0 49 -18 84 -55 105 -25 15 -75 17 -463
17 l-435 0 -31 -25z"/>
<path d="M2864 916 c-8 -22 30 -100 66 -135 62 -59 169 -65 242 -15 41 29 94
123 84 149 -8 22 -384 23 -392 1z"/>
</g>
</svg>
