<?xml version="1.0" standalone="no"?>
<!DOCTYPE svg PUBLIC "-//W3C//DTD SVG 20010904//EN"
 "http://www.w3.org/TR/2001/REC-SVG-20010904/DTD/svg10.dtd">
<svg version="1.0" xmlns="http://www.w3.org/2000/svg"
 width="300.000000pt" height="300.000000pt" viewBox="0 0 300.000000 300.000000"
 preserveAspectRatio="xMidYMid meet">
<metadata>
Created by potrace 1.10, written by Peter Selinger 2001-2011
</metadata>
<g transform="translate(0.000000,300.000000) scale(0.100000,-0.100000)"
fill="#000000" stroke="none">
<path d="M1482 2523 c2 -97 6 -118 18 -118 12 0 16 21 18 118 3 112 2 117 -18
117 -20 0 -21 -5 -18 -117z"/>
<path d="M830 2346 c0 -17 146 -156 164 -156 33 0 22 21 -51 94 -72 71 -113
94 -113 62z"/>
<path d="M2057 2282 c-72 -72 -83 -92 -51 -92 17 0 164 139 164 156 0 31 -39
9 -113 -64z"/>
<path d="M1408 2228 c-135 -13 -252 -68 -324 -151 -36 -43 -95 -152 -102 -191
-7 -36 -7 -229 -1 -266 7 -42 40 -111 96 -200 42 -70 173 -328 177 -351 1 -8
10 -28 19 -45 9 -17 13 -34 10 -38 -4 -3 0 -6 8 -6 99 -2 412 0 414 2 1 2 17
39 35 83 46 113 167 343 200 382 23 27 72 134 79 173 8 45 8 214 0 261 -10 57
-69 159 -124 215 -107 108 -275 153 -487 132z m277 -38 c121 -52 160 -74 195
-107 22 -21 40 -42 40 -46 0 -5 8 -21 19 -35 67 -97 85 -296 38 -422 -13 -36
-38 -87 -55 -115 -17 -27 -43 -72 -58 -100 -14 -27 -29 -52 -33 -55 -12 -10
-71 -129 -71 -143 0 -19 -25 -68 -32 -62 -2 3 -10 -18 -17 -45 -10 -39 -18
-51 -36 -56 -28 -7 -46 2 -40 19 2 7 6 48 9 92 2 44 6 87 9 95 3 8 11 36 17
63 7 26 16 47 20 47 7 0 11 10 19 45 4 17 33 45 47 45 23 0 56 52 49 79 -7 27
-40 55 -67 57 -10 1 -25 7 -33 14 -12 10 -21 10 -41 1 -18 -8 -31 -8 -45 0
-15 7 -29 7 -51 0 -20 -7 -36 -7 -49 0 -13 7 -26 6 -40 -2 -16 -8 -28 -8 -46
0 -18 8 -30 8 -45 0 -14 -8 -27 -8 -43 -1 -38 18 -120 -14 -141 -54 -17 -30
-17 -33 0 -59 9 -14 27 -30 40 -35 59 -22 110 -172 120 -348 3 -58 -3 -67 -39
-58 -18 5 -29 22 -51 78 -31 83 -126 271 -177 351 -75 117 -98 191 -99 317 0
123 15 177 80 277 49 74 174 154 277 176 46 10 301 0 330 -13z m-339 -669 c10
-19 33 -28 27 -10 -1 4 7 15 17 24 16 15 22 15 35 5 8 -7 15 -22 15 -34 1 -18
4 -17 29 14 25 29 31 32 45 21 8 -7 18 -21 21 -32 8 -24 25 -25 25 -1 0 20 18
42 36 42 6 0 19 -15 27 -32 l16 -33 10 28 c13 35 40 46 56 24 7 -10 22 -17 33
-17 11 0 28 -10 36 -22 13 -19 14 -25 2 -43 -7 -11 -23 -21 -35 -23 -17 -3
-32 -25 -64 -91 -52 -108 -48 -94 -61 -223 -6 -72 -14 -108 -22 -108 -17 0
-10 159 11 239 9 35 33 93 53 130 35 63 48 116 32 126 -4 3 -15 -6 -24 -20
-22 -33 -45 -32 -59 4 l-11 30 -18 -30 c-21 -35 -48 -35 -63 -1 -12 28 -18 28
-30 0 -6 -13 -19 -23 -30 -23 -11 0 -24 10 -30 23 -13 28 -19 28 -33 -3 -6
-14 -18 -25 -27 -25 -8 0 -22 11 -31 25 -22 34 -33 31 -30 -7 2 -31 12 -54 57
-135 33 -59 62 -199 53 -255 -3 -23 -2 -38 4 -38 6 0 8 -9 5 -20 -3 -11 -12
-20 -19 -20 -10 0 -14 14 -14 48 0 41 -10 116 -24 189 -3 12 -10 31 -16 42 -6
12 -7 21 -3 21 4 0 3 4 -3 8 -6 4 -23 31 -39 60 -18 33 -35 52 -46 52 -10 0
-25 10 -33 22 -13 19 -14 25 -2 43 7 11 24 22 36 23 13 2 30 10 38 18 18 19
34 14 48 -15z m90 -76 c25 -13 30 -13 45 1 16 14 20 14 40 1 19 -14 25 -14 50
-1 24 12 30 12 41 0 9 -10 20 -11 36 -5 23 9 23 8 -8 -48 -56 -104 -81 -193
-82 -292 -1 -88 -1 -89 -27 -94 -22 -4 -40 -4 -82 2 -3 1 -9 53 -11 117 -3 65
-10 120 -17 127 -6 6 -11 18 -11 28 0 14 -40 98 -59 124 -5 6 -11 18 -14 28
-6 15 -3 17 13 12 11 -3 28 -2 37 4 10 6 19 11 19 11 1 0 14 -7 30 -15z"/>
<path d="M665 1701 c-56 -5 -70 -10 -73 -23 -3 -14 4 -18 30 -20 18 0 40 0 48
0 8 1 44 4 79 6 65 5 89 16 77 35 -7 11 -40 12 -161 2z"/>
<path d="M2180 1701 c0 -6 0 -14 0 -18 1 -12 148 -30 193 -24 43 6 60 26 30
34 -43 12 -223 18 -223 8z"/>
<path d="M1043 1212 c-6 -4 -41 -43 -77 -86 -54 -65 -64 -82 -54 -94 10 -12
18 -7 50 28 65 72 108 127 108 138 0 15 -14 22 -27 14z"/>
<path d="M1932 1204 c-6 -11 -1 -24 22 -48 17 -18 51 -56 75 -85 41 -48 60
-58 68 -35 4 11 -120 164 -142 177 -9 4 -17 1 -23 -9z"/>
<path d="M1202 918 c-17 -17 -15 -64 4 -82 13 -14 54 -16 293 -16 300 0 314 2
314 53 0 57 0 57 -312 57 -210 0 -290 -3 -299 -12z m569 -18 c11 -6 15 -17 12
-30 -5 -19 -14 -20 -197 -22 -105 -1 -213 -3 -241 -4 -80 -4 -122 5 -128 26
-3 10 0 23 6 29 14 14 523 14 548 1z"/>
<path d="M1246 765 c-27 -13 -33 -66 -11 -89 14 -14 49 -16 265 -16 213 0 251
2 264 16 20 19 21 68 2 83 -19 16 -490 21 -520 6z m507 -29 c3 -8 0 -22 -8
-33 -12 -17 -32 -18 -249 -18 -233 0 -235 0 -245 22 -8 18 -7 24 6 31 9 5 123
10 254 10 192 1 238 -1 242 -12z"/>
<path d="M1280 607 c-31 -15 -39 -67 -15 -91 24 -24 445 -24 469 0 23 22 20
60 -6 84 -21 19 -34 20 -223 20 -136 -1 -209 -5 -225 -13z m435 -27 c15 -12 8
-49 -9 -51 -6 -1 -98 -2 -205 -4 -180 -2 -195 -1 -213 17 -15 15 -17 23 -8 33
14 17 415 21 435 5z"/>
<path d="M1400 455 c0 -20 32 -75 48 -84 26 -14 78 -14 104 0 16 9 48 64 48
84 0 3 -45 5 -100 5 -55 0 -100 -2 -100 -5z m160 -35 c0 -12 -53 -35 -74 -32
-24 4 -46 20 -46 34 0 5 27 8 60 7 33 -1 60 -5 60 -9z"/>
</g>
</svg>
